name analog
datacolumns 19
datarows 64
range 0.4855 0.517
endheader
time	ground_force_vx	ground_force_vy	ground_force_vz	ground_force_px	ground_force_py	ground_force_pz	l_ground_force_vx	l_ground_force_vy	l_ground_force_vz	l_ground_force_px	l_ground_force_py	l_ground_force_pz	ground_torque_x	ground_torque_y	ground_torque_z	l_ground_torque_x	l_ground_torque_y	l_ground_torque_z
0.4855	-0.0	-0.0	-0.0	-0.0	-0.0	-0.0	-5.510438442230225	-1.41314697265625	-525.5593872070312	-0.0	-0.0	-0.0	-0.0	-0.0	-0.0	156004.609375	34848.47265625	-2381.253173828125
0.486	-0.0	-0.0	-0.0	-0.0	-0.0	-0.0	-5.080017566680908	-1.3248252868652344	-526.1322021484375	-0.0	-0.0	-0.0	-0.0	-0.0	-0.0	156528.171875	34944.84375	-2436.400634765625
0.4865	-0.0	-0.0	-0.0	-0.0	-0.0	-0.0	-4.924588203430176	-1.0168339014053345	-527.6151123046875	-0.0	-0.0	-0.0	-0.0	-0.0	-0.0	156751.1875	35026.07421875	-2388.10302734375
0.487	-0.0	-0.0	-0.0	-0.0	-0.0	-0.0	-5.3655548095703125	-1.1695417165756226	-527.6160278320312	-0.0	-0.0	-0.0	-0.0	-0.0	-0.0	156966.578125	35161.93359375	-2398.758056640625
0.4875	-0.0	-0.0	-0.0	-0.0	-0.0	-0.0	-4.769037246704102	-0.9502869844436646	-528.3989868164062	-0.0	-0.0	-0.0	-0.0	-0.0	-0.0	157433.015625	35283.39453125	-2358.35546875
0.488	-0.0	-0.0	-0.0	-0.0	-0.0	-0.0	-4.65919828414917	-1.2029145956039429	-528.9647216796875	-0.0	-0.0	-0.0	-0.0	-0.0	-0.0	157579.34375	35428.15234375	-2347.078369140625
0.4885	-0.0	-0.0	-0.0	-0.0	-0.0	-0.0	-4.469353199005127	-1.2574939727783203	-531.8408813476562	-0.0	-0.0	-0.0	-0.0	-0.0	-0.0	157999.328125	35422.83203125	-2317.293212890625
0.489	-0.0	-0.0	-0.0	-0.0	-0.0	-0.0	-4.435539245605469	-0.8077619075775146	-530.92626953125	-0.0	-0.0	-0.0	-0.0	-0.0	-0.0	158605.34375	35704.671875	-2143.491943359375
0.4895	-0.0	-0.0	-0.0	-0.0	-0.0	-0.0	-4.3051371574401855	-0.1090758070349693	-532.2100830078125	-0.0	-0.0	-0.0	-0.0	-0.0	-0.0	158850.953125	35825.3125	-2095.295166015625
0.49	-0.0	-0.0	-0.0	-0.0	-0.0	-0.0	-4.544941425323486	-0.1839845776557922	-534.3358764648438	-0.0	-0.0	-0.0	-0.0	-0.0	-0.0	159136.125	35798.97265625	-2054.55126953125
0.4905	-0.0	-0.0	-0.0	-0.0	-0.0	-0.0	-3.848627805709839	-0.2310504913330078	-535.1153564453125	-0.0	-0.0	-0.0	-0.0	-0.0	-0.0	159428.671875	35806.53125	-1949.231689453125
0.491	-0.0	-0.0	-0.0	-0.0	-0.0	-0.0	-3.807847023010254	-0.3736259937286377	-536.0281372070312	-0.0	-0.0	-0.0	-0.0	-0.0	-0.0	159625.046875	36005.7734375	-1748.3961181640625
0.4915	-0.0	-0.0	-0.0	-0.0	-0.0	-0.0	-3.875464916229248	-0.550141453742981	-535.4387817382812	-0.0	-0.0	-0.0	-0.0	-0.0	-0.0	159710.609375	36131.453125	-1520.4117431640625
0.492	-0.0	-0.0	-0.0	-0.0	-0.0	-0.0	-3.6230740547180176	-0.6724640727043152	-535.3289184570312	-0.0	-0.0	-0.0	-0.0	-0.0	-0.0	159595.734375	36056.56640625	-1472.44580078125
0.4925	-0.0	-0.0	-0.0	-0.0	-0.0	-0.0	-3.597067356109619	-0.5840657353401184	-535.3845825195312	-0.0	-0.0	-0.0	-0.0	-0.0	-0.0	159341.90625	36052.66015625	-1421.7989501953125
0.493	-0.0	-0.0	-0.0	-0.0	-0.0	-0.0	-3.528522253036499	-0.3334648311138153	-537.0735473632812	-0.0	-0.0	-0.0	-0.0	-0.0	-0.0	159546.1875	35927.3515625	-1105.0093994140625
0.4935	-0.0	-0.0	-0.0	-0.0	-0.0	-0.0	-2.961911201477051	0.2255385220050811	-537.47998046875	-0.0	-0.0	-0.0	-0.0	-0.0	-0.0	159690.984375	35855.390625	-857.4058227539062
0.494	-0.0	-0.0	-0.0	-0.0	-0.0	-0.0	-2.784566640853882	0.7261334657669067	-537.8668823242188	-0.0	-0.0	-0.0	-0.0	-0.0	-0.0	160155.28125	35723.0390625	-791.177734375
0.4945	-0.0	-0.0	-0.0	-0.0	-0.0	-0.0	-2.129058837890625	0.9609458446502686	-537.9239501953125	-0.0	-0.0	-0.0	-0.0	-0.0	-0.0	159904.109375	35772.13671875	-446.230712890625
0.495	-0.0	-0.0	-0.0	-0.0	-0.0	-0.0	-1.685504913330078	0.8599014282226562	-537.6934814453125	-0.0	-0.0	-0.0	-0.0	-0.0	-0.0	159975.71875	35586.6015625	-164.65866088867188
0.4955	-0.0	-0.0	-0.0	-0.0	-0.0	-0.0	-1.1687140464782717	1.0944361686706543	-538.6043090820312	-0.0	-0.0	-0.0	-0.0	-0.0	-0.0	160204.5625	35266.37890625	130.9799041748047
0.496	-0.0	-0.0	-0.0	-0.0	-0.0	-0.0	-0.8871078491210938	1.0944904088974	-539.7884521484375	-0.0	-0.0	-0.0	-0.0	-0.0	-0.0	160191.046875	35408.8515625	337.58251953125
0.4965	-0.0	-0.0	-0.0	-0.0	-0.0	-0.0	-0.4245626032352447	0.706573486328125	-540.7611083984375	-0.0	-0.0	-0.0	-0.0	-0.0	-0.0	160170.71875	35270.71484375	527.479736328125
0.497	-0.0	-0.0	-0.0	-0.0	-0.0	-0.0	0.1236345320940017	0.7976857423782349	-539.5135498046875	-0.0	-0.0	-0.0	-0.0	-0.0	-0.0	160365.15625	35359.1328125	717.5979614257812
0.4975	-0.0	-0.0	-0.0	-0.0	-0.0	-0.0	0.4085755050182342	0.8110485076904297	-539.439208984375	-0.0	-0.0	-0.0	-0.0	-0.0	-0.0	160232.34375	35343.171875	759.2193603515625
0.498	-0.0	-0.0	-0.0	-0.0	-0.0	-0.0	0.4435539245605469	1.1481819152832031	-540.9091186523438	-0.0	-0.0	-0.0	-0.0	-0.0	-0.0	160228.59375	35555.03125	819.4779663085938
0.4985	-0.0	-0.0	-0.0	-0.0	-0.0	-0.0	0.9074046611785888	1.1481819152832031	-540.6976318359375	-0.0	-0.0	-0.0	-0.0	-0.0	-0.0	160491.046875	35265.36328125	950.7965087890624
0.499	-0.0	-0.0	-0.0	-0.0	-0.0	-0.0	1.2785871028900146	1.1649861335754397	-540.408935546875	-0.0	-0.0	-0.0	-0.0	-0.0	-0.0	160675.5625	35426.1875	1057.34130859375
0.4995	-0.0	-0.0	-0.0	-0.0	-0.0	-0.0	2.023306369781494	1.0428932905197144	-540.558349609375	-0.0	-0.0	-0.0	-0.0	-0.0	-0.0	160788.25	35315.09765625	1045.643798828125
0.5	-0.0	-0.0	-0.0	-0.0	-0.0	-0.0	2.4839019775390625	1.2887825965881348	-540.903564453125	-0.0	-0.0	-0.0	-0.0	-0.0	-0.0	161038.921875	35096.75	1206.214111328125
0.5005000000000001	-0.0	-0.0	-0.0	-0.0	-0.0	-0.0	3.1223127841949463	1.077728271484375	-541.3242797851562	-0.0	-0.0	-0.0	-0.0	-0.0	-0.0	161116.859375	35202.05078125	1319.54345703125
0.501	-0.0	-0.0	-0.0	-0.0	-0.0	-0.0	3.637334108352661	1.0776009559631348	-542.0928955078125	-0.0	-0.0	-0.0	-0.0	-0.0	-0.0	161434.46875	35160.8671875	1373.36474609375
0.5015000000000001	-0.0	-0.0	-0.0	-0.0	-0.0	-0.0	4.275908470153809	1.9959735870361328	-542.9307861328125	-0.0	-0.0	-0.0	-0.0	-0.0	-0.0	161423.609375	35010.046875	1350.327880859375
0.502	-0.0	-0.0	-0.0	-0.0	-0.0	-0.0	4.630982398986816	2.4900224208831787	-541.3941650390625	-0.0	-0.0	-0.0	-0.0	-0.0	-0.0	161711.90625	34947.89453125	1421.773681640625
0.5025000000000001	-0.0	-0.0	-0.0	-0.0	-0.0	-0.0	5.216489791870117	2.719866275787353	-540.0031127929688	-0.0	-0.0	-0.0	-0.0	-0.0	-0.0	162068.203125	34654.73046875	1665.33984375
0.503	-0.0	-0.0	-0.0	-0.0	-0.0	-0.0	6.26275634765625	3.251805067062378	-541.116943359375	-0.0	-0.0	-0.0	-0.0	-0.0	-0.0	162013.078125	34700.35546875	1696.1302490234375
0.5035000000000001	-0.0	-0.0	-0.0	-0.0	-0.0	-0.0	7.272839069366455	3.1439642906188965	-542.0973510742188	-0.0	-0.0	-0.0	-0.0	-0.0	-0.0	162203.9375	34698.203125	1838.918701171875
0.504	-0.0	-0.0	-0.0	-0.0	-0.0	-0.0	7.734893798828125	3.427565097808838	-542.5816650390625	-0.0	-0.0	-0.0	-0.0	-0.0	-0.0	162428.4375	34781.9765625	1744.569580078125
0.5045000000000001	-0.0	-0.0	-0.0	-0.0	-0.0	-0.0	7.09686279296875	3.532867431640625	-540.9854125976562	-0.0	-0.0	-0.0	-0.0	-0.0	-0.0	162630.875	34838.98828125	1465.13427734375
0.505	-0.0	-0.0	-0.0	-0.0	-0.0	-0.0	7.024925708770752	3.8503432273864746	-540.1375732421875	-0.0	-0.0	-0.0	-0.0	-0.0	-0.0	162600.1875	35090.94140625	1211.7916259765625
0.5055000000000001	-0.0	-0.0	-0.0	-0.0	-0.0	-0.0	6.561903476715088	4.026932239532471	-538.4679565429688	-0.0	-0.0	-0.0	-0.0	-0.0	-0.0	162774.953125	35310.23046875	913.2291259765624
0.506	-0.0	-0.0	-0.0	-0.0	-0.0	-0.0	5.572268962860107	4.716991424560547	-539.2200927734375	-0.0	-0.0	-0.0	-0.0	-0.0	-0.0	162962.390625	35884.81640625	593.95068359375
0.5065000000000001	-0.0	-0.0	-0.0	-0.0	-0.0	-0.0	5.21753454208374	5.721243381500244	-540.086181640625	-0.0	-0.0	-0.0	-0.0	-0.0	-0.0	163895.421875	36641.08203125	343.5580749511719
0.507	-0.0	-0.0	-0.0	-0.0	-0.0	-0.0	3.535919666290283	6.551981449127197	-541.40625	-0.0	-0.0	-0.0	-0.0	-0.0	-0.0	164183.21875	37169.1640625	-160.44052124023438
0.5075000000000001	-0.0	-0.0	-0.0	-0.0	-0.0	-0.0	2.34277606010437	7.290524959564209	-542.4387817382812	-0.0	-0.0	-0.0	-0.0	-0.0	-0.0	164929.46875	37672.06640625	-518.2977905273438
0.508	-0.0	-0.0	-0.0	-0.0	-0.0	-0.0	1.4557223320007324	8.173418045043945	-541.18505859375	-0.0	-0.0	-0.0	-0.0	-0.0	-0.0	165065.65625	38170.0859375	-826.03466796875
0.5085000000000001	-0.0	-0.0	-0.0	-0.0	-0.0	-0.0	1.137382984161377	8.623950004577637	-543.8348388671875	-0.0	-0.0	-0.0	-0.0	-0.0	-0.0	165849.9375	38885.55859375	-796.3539428710938
0.509	-0.0	-0.0	-0.0	-0.0	-0.0	-0.0	0.6939572691917419	8.78017807006836	-544.1218872070312	-0.0	-0.0	-0.0	-0.0	-0.0	-0.0	166066.640625	39456.453125	-754.6561889648438
0.5095000000000001	-0.0	-0.0	-0.0	-0.0	-0.0	-0.0	0.0053059756755828	7.637332916259766	-543.916748046875	-0.0	-0.0	-0.0	-0.0	-0.0	-0.0	166343.328125	40113.015625	-948.980224609375
0.51	-0.0	-0.0	-0.0	-0.0	-0.0	-0.0	-1.9516372680664065	6.4110212326049805	-541.6782836914062	-0.0	-0.0	-0.0	-0.0	-0.0	-0.0	165387.96875	40644.0234375	-1386.8948974609375
0.5105000000000001	-0.0	-0.0	-0.0	-0.0	-0.0	-0.0	-4.334807395935059	5.658572196960449	-539.8723754882812	-0.0	-0.0	-0.0	-0.0	-0.0	-0.0	164733.71875	40942.96484375	-1816.2808837890625
0.511	-0.0	-0.0	-0.0	-0.0	-0.0	-0.0	-5.58238410949707	5.615985870361328	-538.4766845703125	-0.0	-0.0	-0.0	-0.0	-0.0	-0.0	164334.390625	41499.32421875	-2136.2158203125
0.5115000000000001	-0.0	-0.0	-0.0	-0.0	-0.0	-0.0	-6.439069747924805	6.227546215057373	-538.5367431640625	-0.0	-0.0	-0.0	-0.0	-0.0	-0.0	164261.921875	41742.6796875	-2257.46484375
0.512	-0.0	-0.0	-0.0	-0.0	-0.0	-0.0	-6.387176513671875	6.977413177490234	-538.6231079101562	-0.0	-0.0	-0.0	-0.0	-0.0	-0.0	164457.125	42074.83203125	-2074.248046875
0.5125	-0.0	-0.0	-0.0	-0.0	-0.0	-0.0	-6.37985372543335	7.816385746002197	-539.5846557617188	-0.0	-0.0	-0.0	-0.0	-0.0	-0.0	164735.9375	42434.23046875	-1871.386474609375
0.513	-0.0	-0.0	-0.0	-0.0	-0.0	-0.0	-6.209754943847656	8.324468612670898	-539.75830078125	-0.0	-0.0	-0.0	-0.0	-0.0	-0.0	164894.75	42482.5078125	-1693.1522216796875
0.5135	-0.0	-0.0	-0.0	-0.0	-0.0	-0.0	-5.795352458953857	8.493393898010254	-541.1538696289062	-0.0	-0.0	-0.0	-0.0	-0.0	-0.0	165145.3125	42641.3125	-1436.0064697265625
0.514	-0.0	-0.0	-0.0	-0.0	-0.0	-0.0	-4.641804218292236	7.78057336807251	-541.9400634765625	-0.0	-0.0	-0.0	-0.0	-0.0	-0.0	165377.265625	42530.6796875	-1126.5118408203125
0.5145	-0.0	-0.0	-0.0	-0.0	-0.0	-0.0	-3.5942025184631348	8.213916778564453	-543.1334838867188	-0.0	-0.0	-0.0	-0.0	-0.0	-0.0	165415.765625	42466.87890625	-695.1817016601562
0.515	-0.0	-0.0	-0.0	-0.0	-0.0	-0.0	-2.9505724906921387	8.436590194702148	-542.8397827148438	-0.0	-0.0	-0.0	-0.0	-0.0	-0.0	165622.625	42513.78515625	-485.3053894042969
0.5155	-0.0	-0.0	-0.0	-0.0	-0.0	-0.0	-2.6986634731292725	9.259807586669922	-543.7760009765625	-0.0	-0.0	-0.0	-0.0	-0.0	-0.0	165612.4375	42521.99609375	-338.3578796386719
0.516	-0.0	-0.0	-0.0	-0.0	-0.0	-0.0	-1.8020610809326167	10.31026840209961	-543.8858642578125	-0.0	-0.0	-0.0	-0.0	-0.0	-0.0	165669.25	42240.7578125	-164.14285278320312
0.5165	-0.0	-0.0	-0.0	-0.0	-0.0	-0.0	-0.9895873665809632	10.435667037963867	-543.8849487304688	-0.0	-0.0	-0.0	-0.0	-0.0	-0.0	165710.859375	42258.29296875	-19.79136085510254
0.517	-0.0	-0.0	-0.0	-0.0	-0.0	-0.0	-0.4435539245605469	10.649553298950195	-543.0918579101562	-0.0	-0.0	-0.0	-0.0	-0.0	-0.0	165767.015625	42089.15625	141.5872344970703
